<mxfile host="app.diagrams.net" modified="2022-06-24T02:56:45.154Z" agent="5.0 (Windows NT 10.0; Win64; x64) AppleWebKit/537.36 (KHTML, like Gecko) Chrome/102.0.0.0 Safari/537.36" etag="Feu8HWuMWqsE9bUZXB7m" version="20.0.3" type="github">
  <diagram id="kgpKYQtTHZ0yAKxKKP6v" name="Page-1">
    <mxGraphModel dx="1578" dy="862" grid="1" gridSize="10" guides="1" tooltips="1" connect="1" arrows="1" fold="1" page="1" pageScale="1" pageWidth="850" pageHeight="1100" math="0" shadow="0">
      <root>
        <mxCell id="0" />
        <mxCell id="1" parent="0" />
        <mxCell id="3nuBFxr9cyL0pnOWT2aG-1" value="User" style="shape=umlLifeline;perimeter=lifelinePerimeter;container=1;collapsible=0;recursiveResize=0;rounded=0;shadow=0;strokeWidth=1;fillColor=#fad7ac;strokeColor=#b46504;fontStyle=1;fontSize=14;" parent="1" vertex="1">
          <mxGeometry x="120" y="80" width="100" height="940" as="geometry" />
        </mxCell>
        <mxCell id="3nuBFxr9cyL0pnOWT2aG-5" value="Singpass Mobile" style="shape=umlLifeline;perimeter=lifelinePerimeter;container=1;collapsible=0;recursiveResize=0;rounded=0;shadow=0;strokeWidth=1;fontSize=14;fontStyle=1;fillColor=#fad7ac;strokeColor=#b46504;" parent="1" vertex="1">
          <mxGeometry x="300" y="80" width="150" height="940" as="geometry" />
        </mxCell>
        <mxCell id="3nuBFxr9cyL0pnOWT2aG-8" value="Visits ISIS page containing embedded QR" style="verticalAlign=bottom;endArrow=block;shadow=0;strokeWidth=1;" parent="1" target="-Dmsjx_ReHTggDWPPz3I-1" edge="1">
          <mxGeometry relative="1" as="geometry">
            <mxPoint x="170" y="360.0000000000001" as="sourcePoint" />
            <mxPoint x="470" y="360.0000000000001" as="targetPoint" />
          </mxGeometry>
        </mxCell>
        <mxCell id="-Dmsjx_ReHTggDWPPz3I-1" value="Internet &#xa;Front-End Portal" style="shape=umlLifeline;perimeter=lifelinePerimeter;container=1;collapsible=0;recursiveResize=0;rounded=0;shadow=0;strokeWidth=1;fillColor=#fad7ac;strokeColor=#b46504;fontSize=14;fontStyle=1" vertex="1" parent="1">
          <mxGeometry x="500" y="80" width="190" height="930" as="geometry" />
        </mxCell>
        <mxCell id="-Dmsjx_ReHTggDWPPz3I-7" value="1.Lines highlighted in red are to be implemented by the frontend portal&lt;br&gt;&lt;div style=&quot;&quot;&gt;&lt;span style=&quot;background-color: initial;&quot;&gt;2. Dashed line indicate asynchronous calls, solid line denotes synchronous calls&amp;nbsp;&lt;/span&gt;&lt;/div&gt;&lt;div style=&quot;&quot;&gt;&lt;span style=&quot;background-color: initial;&quot;&gt;3. Assumptions:&lt;/span&gt;&lt;/div&gt;&lt;div style=&quot;&quot;&gt;&lt;ul&gt;&lt;li&gt;&lt;span style=&quot;background-color: initial;&quot;&gt;IRIS has registered with Singpass OIDC(NDI) and has client ID&lt;/span&gt;&lt;/li&gt;&lt;li&gt;&lt;span style=&quot;background-color: initial;&quot;&gt;Front-end portal has embedded NDI JavaScript package on their webpage&lt;/span&gt;&lt;/li&gt;&lt;/ul&gt;&lt;/div&gt;" style="rounded=0;whiteSpace=wrap;html=1;align=left;" vertex="1" parent="-Dmsjx_ReHTggDWPPz3I-1">
          <mxGeometry x="-75" y="70" width="450" height="120" as="geometry" />
        </mxCell>
        <mxCell id="-Dmsjx_ReHTggDWPPz3I-12" value="initAuth()" style="verticalAlign=bottom;endArrow=open;dashed=1;endSize=8;shadow=0;strokeWidth=1;fillColor=#a20025;strokeColor=#6F0000;" edge="1" parent="-Dmsjx_ReHTggDWPPz3I-1" target="-Dmsjx_ReHTggDWPPz3I-3">
          <mxGeometry x="-0.1019" y="10" relative="1" as="geometry">
            <mxPoint x="230" y="320" as="targetPoint" />
            <mxPoint x="100" y="320" as="sourcePoint" />
            <mxPoint as="offset" />
          </mxGeometry>
        </mxCell>
        <mxCell id="-Dmsjx_ReHTggDWPPz3I-13" value="SUCCESS" style="verticalAlign=bottom;endArrow=open;dashed=1;endSize=8;shadow=0;strokeWidth=1;" edge="1" parent="-Dmsjx_ReHTggDWPPz3I-1" source="-Dmsjx_ReHTggDWPPz3I-3">
          <mxGeometry x="0.0651" relative="1" as="geometry">
            <mxPoint x="90" y="360" as="targetPoint" />
            <mxPoint x="250" y="350" as="sourcePoint" />
            <mxPoint as="offset" />
          </mxGeometry>
        </mxCell>
        <mxCell id="-Dmsjx_ReHTggDWPPz3I-14" value="Generate QR" style="html=1;" vertex="1" parent="-Dmsjx_ReHTggDWPPz3I-1">
          <mxGeometry x="20" y="380" width="110" height="50" as="geometry" />
        </mxCell>
        <mxCell id="-Dmsjx_ReHTggDWPPz3I-3" value="OIDC Singpass" style="shape=umlLifeline;perimeter=lifelinePerimeter;container=1;collapsible=0;recursiveResize=0;rounded=0;shadow=0;strokeWidth=1;fillColor=#fad7ac;strokeColor=#b46504;fontSize=14;fontStyle=1" vertex="1" parent="1">
          <mxGeometry x="840" y="80" width="100" height="930" as="geometry" />
        </mxCell>
        <mxCell id="-Dmsjx_ReHTggDWPPz3I-5" value="IRIS&#xa;Back-End System" style="shape=umlLifeline;perimeter=lifelinePerimeter;container=1;collapsible=0;recursiveResize=0;rounded=0;shadow=0;strokeWidth=1;fillColor=#fad7ac;strokeColor=#b46504;fontSize=14;fontStyle=1" vertex="1" parent="1">
          <mxGeometry x="1030" y="80" width="130" height="920" as="geometry" />
        </mxCell>
        <mxCell id="-Dmsjx_ReHTggDWPPz3I-8" value="OIDC Auth" style="shape=umlFrame;whiteSpace=wrap;html=1;width=70;height=20;" vertex="1" parent="1">
          <mxGeometry x="90" y="280" width="1120" height="680" as="geometry" />
        </mxCell>
        <mxCell id="-Dmsjx_ReHTggDWPPz3I-9" value="OIDC Initialisation" style="shape=umlFrame;whiteSpace=wrap;html=1;width=100;height=30;" vertex="1" parent="1">
          <mxGeometry x="110" y="310" width="1070" height="250" as="geometry" />
        </mxCell>
        <mxCell id="-Dmsjx_ReHTggDWPPz3I-15" value="scan QR" style="verticalAlign=bottom;endArrow=block;entryX=0;entryY=0;shadow=0;strokeWidth=1;fontSize=12;" edge="1" parent="1">
          <mxGeometry x="-0.0909" y="10" relative="1" as="geometry">
            <mxPoint x="380" y="600" as="sourcePoint" />
            <mxPoint x="600" y="600.0000000000001" as="targetPoint" />
            <mxPoint as="offset" />
          </mxGeometry>
        </mxCell>
        <mxCell id="-Dmsjx_ReHTggDWPPz3I-16" value="Sends an authentication request&#xa;(client id, redirect URI, openid scope)" style="verticalAlign=bottom;endArrow=block;shadow=0;strokeWidth=1;fontSize=12;" edge="1" parent="1" target="-Dmsjx_ReHTggDWPPz3I-3">
          <mxGeometry x="-0.0453" relative="1" as="geometry">
            <mxPoint x="600" y="640" as="sourcePoint" />
            <mxPoint x="819.5" y="640" as="targetPoint" />
            <Array as="points">
              <mxPoint x="720" y="640" />
            </Array>
            <mxPoint as="offset" />
          </mxGeometry>
        </mxCell>
        <mxCell id="-Dmsjx_ReHTggDWPPz3I-17" value="&lt;font style=&quot;font-size: 12px;&quot;&gt;Sends an authorization code&lt;/font&gt;" style="html=1;verticalAlign=bottom;endArrow=block;rounded=0;fontFamily=Helvetica;fontSize=14;" edge="1" parent="1" source="-Dmsjx_ReHTggDWPPz3I-3">
          <mxGeometry x="0.1511" width="80" relative="1" as="geometry">
            <mxPoint x="819.5" y="679" as="sourcePoint" />
            <mxPoint x="594.5" y="679" as="targetPoint" />
            <Array as="points">
              <mxPoint x="700" y="679" />
            </Array>
            <mxPoint as="offset" />
          </mxGeometry>
        </mxCell>
        <mxCell id="-Dmsjx_ReHTggDWPPz3I-19" value="Redirect to redirect URI with auth code" style="html=1;verticalAlign=bottom;endArrow=block;rounded=0;fontFamily=Helvetica;fontSize=12;fillColor=#a20025;strokeColor=#6F0000;" edge="1" parent="1" target="-Dmsjx_ReHTggDWPPz3I-5">
          <mxGeometry width="80" relative="1" as="geometry">
            <mxPoint x="594.5" y="725" as="sourcePoint" />
            <mxPoint x="1004.5" y="725" as="targetPoint" />
          </mxGeometry>
        </mxCell>
        <mxCell id="-Dmsjx_ReHTggDWPPz3I-20" value="&lt;span style=&quot;background-color: rgb(255, 255, 255);&quot;&gt;Exhange auth code with id token&lt;/span&gt;&lt;br style=&quot;background-color: rgb(255, 255, 255);&quot;&gt;&lt;span style=&quot;background-color: rgb(255, 255, 255);&quot;&gt;and access token&lt;/span&gt;" style="text;html=1;align=center;verticalAlign=middle;resizable=0;points=[];autosize=1;strokeColor=none;fillColor=none;fontSize=12;fontFamily=Helvetica;" vertex="1" parent="1">
          <mxGeometry x="890" y="770" width="190" height="30" as="geometry" />
        </mxCell>
        <mxCell id="-Dmsjx_ReHTggDWPPz3I-21" value="" style="endArrow=block;startArrow=block;endFill=1;startFill=1;html=1;rounded=0;fontFamily=Helvetica;fontSize=12;entryX=0;entryY=0.778;entryDx=0;entryDy=0;entryPerimeter=0;" edge="1" parent="1">
          <mxGeometry width="160" relative="1" as="geometry">
            <mxPoint x="890" y="800" as="sourcePoint" />
            <mxPoint x="1080" y="800.06" as="targetPoint" />
          </mxGeometry>
        </mxCell>
        <mxCell id="-Dmsjx_ReHTggDWPPz3I-22" value="&lt;span style=&quot;font-size: 12px;&quot;&gt;Auth status | accessToken, tokenType,idToken&lt;/span&gt;" style="html=1;verticalAlign=bottom;endArrow=block;rounded=0;fontFamily=Helvetica;fontSize=14;" edge="1" parent="1">
          <mxGeometry x="0.3521" y="-10" width="80" relative="1" as="geometry">
            <mxPoint x="1074.5" y="860" as="sourcePoint" />
            <mxPoint x="594.5" y="860" as="targetPoint" />
            <Array as="points">
              <mxPoint x="770" y="860" />
            </Array>
            <mxPoint x="1" as="offset" />
          </mxGeometry>
        </mxCell>
      </root>
    </mxGraphModel>
  </diagram>
</mxfile>
